# xmcd
#
# Track frame offsets: 
#        150
#        33636
#        107906
#        143332
#        154771
#        172796
#        192493
#        210806
#        236576
#        245360
#        257287
#
# Disc length: 3764 seconds
#
# Revision: 0
# Processed by: cddbd v1.5.2PL0 Copyright (c) Steve Scherf et al.
# Submitted via: ExactAudioCopy v0.95b3
#
DISCID=830eb20b
DTITLE=Jimi Hendrix  - In the Studio Reclamation 1967-1970 - Disc 08  
DTITLE=FLAC
DYEAR=1900
DGENRE=
TTITLE0=Electric Church
TTITLE1=Hear My Freedom
TTITLE2=Honey Bed
TTITLE3=Room Full Of Mirrors
TTITLE4=All Along The Watchtower
TTITLE5=Ezy Rider
TTITLE6=Dolly Dagger
TTITLE7=South Saturn Delta
TTITLE8=Shame Shame Shame
TTITLE9=Gypsy Blood
TTITLE10=Sunshine Of Your Love
EXTD=
EXTT0=
EXTT1=
EXTT2=
EXTT3=
EXTT4=
EXTT5=
EXTT6=
EXTT7=
EXTT8=
EXTT9=
EXTT10=
PLAYORDER=
